<?xml version="1.0" encoding="utf-8"?>
<!-- Generator: Adobe Illustrator 23.0.1, SVG Export Plug-In . SVG Version: 6.00 Build 0)  -->
<svg version="1.1" id="Layer_1" xmlns="http://www.w3.org/2000/svg" xmlns:xlink="http://www.w3.org/1999/xlink" x="0px" y="0px"
	 viewBox="0 0 1000 1000" style="enable-background:new 0 0 1000 1000;" xml:space="preserve">
<style type="text/css">
	.st0{fill-rule:evenodd;clip-rule:evenodd;fill:#523242;}
	.st1{fill-rule:evenodd;clip-rule:evenodd;fill:#523242;}
</style>
<g id="g850" transform="matrix(0.35610931,0,0,0.35610931,6.5999052,22.81931)">
	<g id="Marketing-site" transform="translate(0,-20)">
		<g id="Desktop-HD---Chrome-ext-create" transform="translate(-72,-111)">
			<g id="ICN-Golinks-horizontal-color" transform="translate(72,111)">
				<g id="ICN-golinks" transform="translate(126,21)">
					<path id="Fill-1" class="st0" d="M1211.7,1387.1c0-18.6-5.2-33.2-15.5-43.9c-10.4-10.7-23.2-16-38.4-16
						c-15.3,0-28.4,5.3-39.5,16c-11.1,10.7-16.6,25.2-16.6,43.6c0,18.4,5.4,33.4,16.2,44.7c10.8,11.4,24,17.1,39.5,17.1
						s28.5-5.6,38.9-16.9C1206.5,1420.6,1211.7,1405.7,1211.7,1387.1z M1220.8,1469c-20.5,22.8-45.9,34.1-76.2,34.1
						c-30.4,0-56-10.3-76.9-30.9c-20.9-20.6-31.3-48.1-31.3-82.5c0-34.4,10.7-62.7,32.2-84.7c21.5-22,46-33.1,73.7-33.1
						c27.6,0,50.5,11.4,68.7,34.1v-30.7h64.8v202.7c0,20.7-3.6,39.2-10.8,55.3c-7.2,16.1-16.8,28.8-28.9,38
						c-23.9,19-52.1,28.5-84.7,28.5c-17.3,0-34.9-2.8-52.9-8.4c-18-5.6-33.8-13.6-47.3-24l25.1-48.8c21.3,16.1,43.8,24.2,67.6,24.2
						c23.8,0,42.5-5.9,56.4-17.7C1213.9,1513.3,1220.8,1494.6,1220.8,1469z"/>
					<path id="Fill-3" class="st0" d="M1367.2,1392.1c0,19,5.4,34.5,16.2,46.5c10.8,12,24.6,17.9,41.5,17.9s30.7-6,41.5-17.9
						c10.8-12,16.2-27.4,16.2-46.5c0-19-5.4-34.6-16.2-46.7c-10.8-12.1-24.6-18.1-41.5-18.1s-30.7,6-41.5,18.1
						C1372.6,1357.5,1367.2,1373,1367.2,1392.1 M1547.8,1392.1c0,33.7-11.7,62.1-35,85.1c-23.3,23.1-52.6,34.6-87.9,34.6
						c-35.3,0-64.6-11.5-87.9-34.6c-23.3-23-35-51.4-35-85.1c0-33.7,11.7-62.2,35-85.4c23.3-23.2,52.6-34.8,87.9-34.8
						c35.3,0,64.6,11.6,87.9,34.8C1536.1,1329.9,1547.8,1358.3,1547.8,1392.1"/>
					<polygon id="Fill-5" class="st1" points="1767.2,1160.4 1585.8,1556.7 1524.9,1556.7 1705.9,1160.4 					"/>
					<polygon id="Fill-7" class="st0" points="1852.3,1508.3 1852.3,1187.7 1787.5,1187.7 1787.5,1508.3 					"/>
					<path id="Fill-9" class="st0" d="M1892.1,1508.3h64.8v-232.5h-64.8V1508.3z M1897.5,1246.2c-7.3-7.3-11-16.3-11-27
						c0-10.7,3.7-19.7,11-27c7.3-7.3,16.3-11,27-11c10.7,0,19.7,3.7,27,11c7.3,7.3,11,16.4,11,27c0,10.7-3.7,19.7-11,27
						c-7.3,7.3-16.3,11-27,11C1913.8,1257.2,1904.8,1253.6,1897.5,1246.2z"/>
					<path id="Fill-10" class="st0" d="M2061.4,1378.7v129.6h-64.8v-232.5h64.8v25.9c19.6-19.9,41.6-29.8,66.1-29.8
						c24.5,0,45,8.6,61.6,25.9c16.6,17.3,24.8,40.3,24.8,69.1v141.3h-64.8v-131.4c0-35.7-13.1-53.6-39.3-53.6
						c-13,0-24.3,4.7-33.9,14.1C2066.2,1346.8,2061.4,1360.5,2061.4,1378.7"/>
					<polygon id="Fill-11" class="st0" points="2251.1,1508.3 2251.1,1187.7 2315.8,1187.7 2315.8,1352.3 2388,1275.4 
						2469.6,1275.4 2381.1,1369.6 2473.1,1508.3 2396.2,1508.3 2337,1419.3 2315.8,1441.3 2315.8,1508.3 					"/>
					<path id="Fill-12" class="st0" d="M2656.7,1435.9c0,22.9-8.4,41.3-25.3,55.1c-16.8,13.8-38.2,20.7-64.2,20.7
						c-17.3,0-35.3-3.1-54-9.3c-18.7-6.2-35.6-15.3-50.5-27.4l28.5-40.6c24.2,18.7,50,28.1,77.3,28.1c8.4,0,15-1.7,19.9-5
						c4.9-3.3,7.3-7.7,7.3-13.2c0-5.5-3.4-10.5-10.2-15.1c-6.8-4.6-16.6-8.9-29.4-13c-12.8-4-22.6-7.5-29.4-10.4
						c-6.8-2.9-14.5-7.1-23.1-12.5c-17.6-10.9-26.4-27.2-26.4-48.6s8.6-39,25.9-52.5c17.3-13.5,39.6-20.3,67-20.3
						c27.4,0,54.7,9.2,82.1,27.7l-24.2,43.2c-20.2-13.8-40.2-20.7-60.3-20.7s-30,5.5-30,16.4c0,6,3.2,10.8,9.5,14.3
						c6.3,3.5,16.8,7.5,31.5,12.1c14.7,4.6,25.1,8.1,31.3,10.6c6.2,2.4,13.6,6.3,22.2,11.4C2648.6,1396.7,2656.7,1413,2656.7,1435.9
						"/>
				</g>
				<g id="ICN-GO">
					<path id="path17" class="st0" d="M470.5,1099.5c9.1-9,9.1-23.7-0.3-33.1l-52-51.7c-32.2-32.1-84.7-32.1-117,0L12.6,1301.8
						c-32.2,32.1-32.2,84.3,0,116.4l288.6,287.1c32.2,32.1,84.7,32.1,117,0l288.6-287.1c32.2-32.1,32.2-84.3,0-116.3l-104.9-104.4
						l-1.8-1.5c-9.3-7.6-22.7-6.9-31.2,1.5l-66.2,65.8c-9.1,9-9.1,23.7,0,32.8c9.1,9,23.9,9,32.9,0l49.7-49.5l88.4,88
						c14.1,14,14.1,36.8,0,50.8l-288.6,287.1c-14.1,14-37,14-51.1,0L45.5,1385.4c-14.1-14-14.1-36.8,0-50.8l288.6-287.1
						c14.1-14,37-14,51.1,0l52.3,52.1C446.6,1108.6,461.4,1108.6,470.5,1099.5"/>
					<path id="Fill-4" class="st1" d="M620.8,1014.7l-288.6,287.1c-32.2,32.1-32.2,84.3,0,116.3L454,1539.3l32.9-32.8l-121.8-121.2
						c-14.1-14-14.1-36.8,0-50.8l288.6-287.1c14.1-14,37-14,51.1,0l288.6,287.1c14.1,14,14.1,36.8,0,50.8l-288.6,287.1
						c-14.1,14-37,14-51.1,0l-68.8-68.4l-32.9,32.8l68.8,68.4c32.2,32.1,84.7,32.1,117,0l288.6-287.1c32.2-32.1,32.2-84.3,0-116.3
						l-288.6-287.1C705.5,982.6,653,982.6,620.8,1014.7"/>
				</g>
			</g>
		</g>
	</g>
</g>
</svg>

